<?xml version="1.0" encoding="UTF-8" standalone="no"?>
<svg
   xmlns:dc="http://purl.org/dc/elements/1.1/"
   xmlns:cc="http://creativecommons.org/ns#"
   xmlns:rdf="http://www.w3.org/1999/02/22-rdf-syntax-ns#"
   xmlns:svg="http://www.w3.org/2000/svg"
   xmlns="http://www.w3.org/2000/svg"
   xmlns:sodipodi="http://sodipodi.sourceforge.net/DTD/sodipodi-0.dtd"
   xmlns:inkscape="http://www.inkscape.org/namespaces/inkscape"
   inkscape:version="1.0beta1 (32d4812, 2019-09-19)"
   inkscape:export-ydpi="96"
   inkscape:export-xdpi="96"
   inkscape:export-filename="/home/jacob/Desktop/OSKHFP1.eps.png"
   sodipodi:docname="logo-bright.svg"
   viewBox="0 0 649.65455 100"
   height="100"
   width="649.65454"
   xml:space="preserve"
   id="svg2"
   version="1.1">
  <metadata
     id="metadata8">
    <rdf:RDF>
      <cc:Work
         rdf:about="">
        <dc:format>image/svg+xml</dc:format>
        <dc:type
           rdf:resource="http://purl.org/dc/dcmitype/StillImage" />
        <dc:title></dc:title>
      </cc:Work>
    </rdf:RDF>
  </metadata>
  <defs
     id="defs6">
    <rect
       id="rect894"
       height="4928.5718"
       width="13950"
       y="4628.0044"
       x="-5975.3867" />
    <radialGradient
       id="radialGradient18"
       spreadMethod="pad"
       gradientTransform="matrix(3.1063977,1.6492457e-7,1.6492492e-7,-3.1063977,6000,6000)"
       gradientUnits="userSpaceOnUse"
       r="1"
       cy="4.5474735e-13"
       cx="2.2737368e-13"
       fy="4.5474735e-13"
       fx="2.2737368e-13">
      <stop
         id="stop14"
         offset="0"
         style="stop-opacity:1;stop-color:#ffffff" />
      <stop
         id="stop16"
         offset="1"
         style="stop-opacity:1;stop-color:#f2fbfe" />
    </radialGradient>
  </defs>
  <sodipodi:namedview
     inkscape:document-rotation="0"
     fit-margin-bottom="0"
     fit-margin-right="0"
     fit-margin-left="0"
     fit-margin-top="0"
     inkscape:current-layer="g4776"
     inkscape:window-maximized="0"
     inkscape:window-y="23"
     inkscape:window-x="0"
     inkscape:cy="500.00001"
     inkscape:cx="10.207295"
     inkscape:zoom="0.35"
     inkscape:snap-global="true"
     showgrid="false"
     id="namedview4"
     inkscape:window-height="1209"
     inkscape:window-width="1600"
     inkscape:pageshadow="2"
     inkscape:pageopacity="0"
     guidetolerance="10"
     gridtolerance="10"
     objecttolerance="10"
     borderopacity="1"
     bordercolor="#666666"
     pagecolor="#ffffff" />
  <g
     transform="matrix(1.3333333,0,0,-1.3333333,229.78267,328.4958)"
     inkscape:label="ink_ext_XXXXXX"
     inkscape:groupmode="layer"
     id="g10">
    <g
       transform="scale(0.1)"
       id="g12">
      <g
         id="g4776">
        <g
           transform="matrix(0.45454547,0,0,0.45454547,388.8188,1139.301)"
           id="g868">
          <g
             id="g4891"
             transform="matrix(1.0063907,0,0,1.0063907,-5579.5181,-7739.0585)"
             style="opacity:1"
             inkscape:export-xdpi="96"
             inkscape:export-ydpi="96"><g
   inkscape:export-ydpi="96"
   inkscape:export-xdpi="96"
   transform="matrix(0.84664267,0,0,0.84664267,834.98811,901.02576)"
   id="g196"
   style="opacity:0.86">
  <path
     inkscape:connector-curvature="0"
     id="path22"
     style="fill:#3fb9a9;fill-opacity:1;fill-rule:nonzero;stroke:none;stroke-width:0.544185"
     d="m 2280.25,10366.975 213.3258,173.818 c 318.3588,310.996 641.2889,489.945 978.1772,475.96 297.3697,-12.342 536.1742,-249.977 531.8371,-547.575 -4.3372,-297.593 -250.0039,-537.7959 -547.5749,-531.8316 -541.0229,10.8347 -920.9236,457.2076 -1105.3097,633.0826 -350.5474,369.365 -702.7436,712.381 -1239.0104,720.201 -427.29369,6.225 -778.73359,-335.109 -784.95899,-762.403 -11.2538,-771.7295 1243.84819,-1125.591 1944.36069,50.642 -314.7401,-319.572 -829.0163,-606.722 -1178.5515,-601.623 -297.59279,4.3371 -536.17419,249.977 -531.83709,547.569 4.3372,297.599 249.9821,536.18 547.57489,531.837 897.6107,-13.082 1194.0172,-1324.0388 2344.3201,-1353.2833 427.2012,-10.8564 778.7336,335.1093 784.959,762.4023 11.0688,759.187 -1151.6687,1250.063 -1957.3122,-98.796" />
  <path
     inkscape:connector-curvature="0"
     id="path24"
     style="fill:#f9da06;fill-opacity:1;fill-rule:nonzero;stroke:none;stroke-width:0.544185"
     d="m 567.65201,10603.7 c 0,0 -164.5179,-481.483 293.5822,-665.9455 355.54839,-143.1695 601.35659,60.1759 866.34729,317.5425 0,0 -982.85719,-549.0441 -1159.92949,348.403" />
  <path
     inkscape:connector-curvature="0"
     id="path26"
     style="fill:#f9da06;fill-opacity:1;fill-rule:nonzero;stroke:none;stroke-width:0.544185"
     d="m 3109.5111,11095.959 c 0,0 212.2701,307.448 655.367,155.99 552.9949,-189.022 598.1894,-639.591 527.07,-928.814 0,0 -110.6709,870.587 -1182.437,772.824" />
  <path
     inkscape:connector-curvature="0"
     id="path28"
     style="fill:#f46a17;fill-opacity:1;fill-rule:nonzero;stroke:none;stroke-width:0.544185"
     d="m 2483.8457,9990.2901 c 0,0 1144.0992,-415.7897 1496.2247,94.2909 0,0 -139.0228,-571.949 -758.1416,-486.0168 -438.134,60.8127 -738.0831,391.7259 -738.0831,391.7259" />
  <path
     inkscape:connector-curvature="0"
     id="path30"
     style="fill:#f46a17;fill-opacity:1;fill-rule:nonzero;stroke:none;stroke-width:0.544185"
     d="m 977.73871,11209.585 c 0,0 294.05559,260.125 697.69359,72.828 403.638,-187.303 545.8879,-577.859 545.8879,-577.859 0,0 -551.2046,462.279 -1243.58149,505.031" />
  <path
     inkscape:connector-curvature="0"
     id="path32"
     style="fill:#f03697;fill-opacity:1;fill-rule:nonzero;stroke:none;stroke-width:0.544185"
     d="m 279.96341,10323.57 c 0,0 -275.1941965,845.778 626.9714,1006.78 0,0 -651.4271,-557.321 -626.9714,-1006.78" />
  <path
     inkscape:connector-curvature="0"
     id="path34"
     style="fill:#f03697;fill-opacity:1;fill-rule:nonzero;stroke:none;stroke-width:0.544185"
     d="m 2490.7133,10461.87 c 0,0 154.222,-568.3468 866.7991,-517.6778 0,0 -649.43,246.0148 -866.7991,517.6778" />
  <path
     inkscape:connector-curvature="0"
     id="path36"
     style="fill:#f03697;fill-opacity:1;fill-rule:nonzero;stroke:none;stroke-width:0.544185"
     d="m 4092.1126,10552.318 c 0,0 95.1452,-441.725 -159.8053,-757.3031 0,0 572.7707,341.0191 159.8053,757.3031" />
  <path
     inkscape:connector-curvature="0"
     id="path38"
     style="fill:#f03697;fill-opacity:1;fill-rule:nonzero;stroke:none;stroke-width:0.544185"
     d="m 2023.2316,10500.752 c 0,0 -64.1812,574.892 -823.15,529.665 0,0 545.4362,-167.005 823.15,-529.665" />
  <path
     inkscape:connector-curvature="0"
     id="path40"
     style="fill:#2c65ad;fill-opacity:1;fill-rule:nonzero;stroke:none;stroke-width:0.544185"
     d="m 274.45081,10255.101 c 0,0 203.2203,-343.8429 813.88789,-418.6193 0,0 -733.30499,-275.9396 -813.88789,418.6193" />
  <path
     inkscape:connector-curvature="0"
     id="path42"
     style="fill:#2c65ad;fill-opacity:1;fill-rule:nonzero;stroke:none;stroke-width:0.544185"
     d="m 2643.4932,10737.205 c 0,0 85.9485,420.535 577.2601,522.679 0,0 -344.7355,-252.132 -577.2601,-522.679" />
  <path
     inkscape:connector-curvature="0"
     id="path44"
     style="fill:#2c65ad;fill-opacity:1;fill-rule:nonzero;stroke:none;stroke-width:0.544185"
     d="m 3610.9772,10899.073 c 0,0 505.6781,-409.575 140.0296,-847.432 0,0 372.3093,177.328 276.1574,525.704 -53.4118,193.513 -278.3396,320.095 -416.187,321.728" />
  <path
     inkscape:connector-curvature="0"
     id="path46"
     style="fill:#2c65ad;fill-opacity:1;fill-rule:nonzero;stroke:none;stroke-width:0.544185"
     d="m 630.70131,10550.67 c 0,0 -115.2148,558.621 476.42269,574.484 0,0 -368.29329,-126.153 -476.42269,-574.484" />
  <path
     inkscape:connector-curvature="0"
     id="path48"
     style="fill:#f46a17;fill-opacity:1;fill-rule:nonzero;stroke:none;stroke-width:0.544185"
     d="m 1124.761,9752.4977 c 0,0 565.7996,196.8098 756.1282,441.4643 0,0 -59.2835,-582.0761 -756.1282,-441.4643" />
  <path
     inkscape:connector-curvature="0"
     id="path50"
     style="fill:#f9da06;fill-opacity:1;fill-rule:nonzero;stroke:none;stroke-width:0.544185"
     d="m 2191.9995,10379.703 c 0,0 82.8086,-386.36 636.9355,-361.79 0,0 -380.7334,150.587 -636.9355,361.79" />
</g>
<text
   inkscape:export-ydpi="96"
   inkscape:export-xdpi="96"
   xml:space="preserve"
   style="font-style:normal;font-weight:normal;font-size:300px;line-height:1.25;font-family:sans-serif;letter-spacing:0px;word-spacing:0px;opacity:0.86;fill:#000000;fill-opacity:1;stroke:none;stroke-width:7.5"
   x="4848.061"
   y="-9387.6836"
   id="text163"
   transform="scale(1,-1)"><tspan
     sodipodi:role="line"
     id="tspan161"
     x="4848.061"
     y="-9387.6836"
     style="font-style:normal;font-variant:normal;font-weight:300;font-stretch:normal;font-size:1000px;font-family:'Open Sans';-inkscape-font-specification:'Open Sans Light';stroke-width:7.5">scikit-multiflow</tspan></text>


</g>
          <rect
             style="opacity:0.24;fill:none;fill-opacity:1;stroke:none;stroke-width:22.1304;stroke-linecap:round;stroke-linejoin:miter;stroke-miterlimit:4;stroke-dasharray:none;stroke-dashoffset:0;stroke-opacity:1"
             id="rect846"
             width="10719.3"
             height="1650"
             x="-4646.8154"
             y="-2913.7185"
             transform="scale(1,-1)" />
        </g>
        <text
           style="font-size:300px;line-height:1.25;font-family:'Times New';-inkscape-font-specification:'Times New Roman Italic';shape-inside:url(#rect894)"
           id="text892"
           xml:space="preserve" />
      </g>
      <flowRoot
         style="font-style:normal;font-weight:normal;font-size:40px;line-height:1.25;font-family:sans-serif;letter-spacing:0px;word-spacing:0px;fill:#000000;fill-opacity:1;stroke:none"
         id="flowRoot165"
         xml:space="preserve"><flowRegion
           id="flowRegion167"><rect
             y="433.89832"
             x="1291.5254"
             height="247.45763"
             width="376.27118"
             id="rect169" /></flowRegion><flowPara
           id="flowPara171" /></flowRoot>      <flowRoot
         style="font-style:normal;font-weight:normal;font-size:40px;line-height:1.25;font-family:sans-serif;letter-spacing:0px;word-spacing:0px;fill:#000000;fill-opacity:1;stroke:none"
         id="flowRoot173"
         xml:space="preserve"><flowRegion
           id="flowRegion175"><rect
             y="359.32202"
             x="-362.71185"
             height="200"
             width="2237.2881"
             id="rect177" /></flowRegion><flowPara
           id="flowPara179" /></flowRoot>    </g>
  </g>
</svg>
