<?xml version="1.0" encoding="utf-8"?>
<!-- Generator: Adobe Illustrator 24.3.0, SVG Export Plug-In . SVG Version: 6.00 Build 0)  -->
<svg version="1.1" id="Layer_1" xmlns="http://www.w3.org/2000/svg" xmlns:xlink="http://www.w3.org/1999/xlink" x="0px" y="0px"
	 viewBox="0 0 841.9 200.8" style="enable-background:new 0 0 841.9 200.8;" xml:space="preserve">
<style type="text/css">
	.st0{fill:#E6E7E8;}
	.st1{fill:#FFFFFF;}
</style>
<rect class="st0" width="841.9" height="200.8"/>
<g>
	<g>
		<g>
			<path class="st1" d="M224.4,169.6c0,15.5-17.4,25.1-30.2,16.3c-6.1-4.2-10.9-9.2-15.2-13.7c-8.3-8.7-14.4-14.9-27.1-14.9
				s-18.8,6.3-27.1,14.9C115,182.4,102.9,195,79.4,195c-23.5,0-35.6-12.6-45.4-22.7c-8.3-8.7-14.4-14.9-27.1-14.9v0
				c0-15.5,17.4-25.1,30.2-16.3c6.1,4.2,10.9,9.2,15.2,13.7c8.3,8.7,14.4,14.9,27.1,14.9c12.7,0,18.8-6.3,27.1-14.9
				c9.7-10.1,21.9-22.7,45.4-22.7s35.6,12.6,45.4,22.7C205.6,163.3,211.6,169.6,224.4,169.6L224.4,169.6z"/>
		</g>
		<g>
			<path class="st1" d="M224.4,106.6c0,15.5-17.4,25.1-30.2,16.3c-6.1-4.2-10.9-9.2-15.2-13.7c-8.3-8.7-14.4-14.9-27.1-14.9
				s-18.8,6.3-27.1,14.9c-9.7,10.1-21.9,22.7-45.4,22.7c-23.5,0-35.6-12.6-45.4-22.7c-8.3-8.7-14.4-14.9-27.1-14.9v0
				c0-15.5,17.4-25.1,30.2-16.3c6.1,4.2,10.9,9.2,15.2,13.7c8.3,8.7,14.4,14.9,27.1,14.9c12.7,0,18.8-6.3,27.1-14.9
				c9.7-10.1,21.9-22.7,45.4-22.7s35.6,12.6,45.4,22.7C205.6,100.3,211.6,106.6,224.4,106.6L224.4,106.6z"/>
		</g>
		<g>
			<path class="st1" d="M224.4,43.5c0,15.5-17.4,25.1-30.2,16.3c-6.1-4.2-10.9-9.2-15.2-13.7c-8.3-8.7-14.4-14.9-27.1-14.9
				s-18.8,6.3-27.1,14.9c-9.7,10.1-21.9,22.7-45.4,22.7c-23.5,0-35.6-12.6-45.4-22.7c-8.3-8.7-14.4-14.9-27.1-14.9v0
				c0-15.5,17.4-25.1,30.2-16.3c6.1,4.2,10.9,9.2,15.2,13.7c8.3,8.7,14.4,14.9,27.1,14.9c12.7,0,18.8-6.3,27.1-14.9
				c9.7-10.1,21.9-22.7,45.4-22.7s35.6,12.6,45.4,22.7C205.6,37.3,211.6,43.5,224.4,43.5L224.4,43.5z"/>
		</g>
	</g>
	<g>
		<path class="st1" d="M404.6,184.6L369,123.3h-32.7v61.3h-27.7V16.2h67.4c15.1,0,27.9,5.3,38.4,15.8c10.5,10.5,15.8,23.3,15.8,38.4
			c0,10.7-3.1,20.6-9.3,29.5c-6.2,8.9-14.2,15.4-24.2,19.4l38.3,65.4H404.6z M336.2,42.2v56.3h39.7c7.4,0,13.6-2.7,18.8-8.2
			c5.1-5.5,7.7-12.1,7.7-20c0-7.9-2.6-14.5-7.7-20c-5.1-5.5-11.4-8.2-18.8-8.2H336.2z"/>
		<path class="st1" d="M479,41.4c-3.3,3.3-7.2,4.9-11.7,4.9c-4.5,0-8.4-1.6-11.7-4.9c-3.3-3.3-4.9-7.2-4.9-11.7
			c0-4.5,1.6-8.4,4.8-11.7c3.2-3.3,7.1-4.9,11.8-4.9c4.7,0,8.6,1.6,11.8,4.9c3.2,3.3,4.8,7.2,4.8,11.7
			C483.9,34.2,482.3,38.1,479,41.4z M454.4,184.6V64.3h26v120.3H454.4z"/>
		<path class="st1" d="M592,64.3h28.4l-46.9,120.3h-30.1L496.5,64.3h28.4l33.7,91.7L592,64.3z"/>
		<path class="st1" d="M652.4,135.5c1.9,9.1,6.3,16.2,13.2,21.1c6.9,4.9,15.3,7.3,25.3,7.3c13.8,0,24.1-5,31-14.9l21.4,12.5
			c-11.9,17.5-29.4,26.2-52.7,26.2c-19.6,0-35.4-6-47.4-17.9c-12-11.9-18-27.1-18-45.4c0-18,5.9-33,17.8-45.1
			c11.9-12.1,27.1-18.2,45.7-18.2c17.6,0,32.1,6.2,43.4,18.5c11.3,12.4,17,27.3,17,45c0,2.7-0.3,6.3-1,10.8H652.4z M652.1,114.4
			h70.7c-1.8-9.8-5.8-17.2-12.2-22.1c-6.3-5-13.8-7.5-22.3-7.5c-9.6,0-17.6,2.6-24.1,7.9C658,98,653.9,105.2,652.1,114.4z"/>
		<path class="st1" d="M797.9,84.5c6.6-14.9,18.9-22.4,37.1-22.4v28.1c-9.9-0.6-18.6,1.7-26,7.1c-7.4,5.4-11.1,14.2-11.1,26.6v60.6
			h-26V64.3h26V84.5z"/>
	</g>
</g>
</svg>
